<svg width="15" height="9" viewBox="0 0 15 9" fill="none" xmlns="http://www.w3.org/2000/svg">
<path d="M0.803597 5.30381L11.4107 5.30382L9.08038 7.63417C8.75895 7.9556 8.75895 8.43774 9.08038 8.75917C9.40181 9.0806 9.88395 9.0806 10.2054 8.75917L13.9018 5.06274C14.2232 4.74132 14.2232 4.25917 13.9018 3.93774L10.2054 0.241315C9.88396 -0.0801138 9.40181 -0.0801138 9.08038 0.241315C8.75896 0.562744 8.75896 1.04489 9.08038 1.36631L11.4107 3.69667L0.803597 3.69667C0.401811 3.69667 2.52311e-05 4.0181 2.51889e-05 4.50024C2.51468e-05 4.98239 0.401811 5.30381 0.803597 5.30381Z" fill="#4089ED"/>
</svg>
